<?xml version="1.0" standalone="no"?>
<!DOCTYPE svg PUBLIC "-//W3C//DTD SVG 20010904//EN"
 "http://www.w3.org/TR/2001/REC-SVG-20010904/DTD/svg10.dtd">
<svg version="1.0" xmlns="http://www.w3.org/2000/svg"
 width="300.000000pt" height="300.000000pt" viewBox="0 0 300.000000 300.000000"
 preserveAspectRatio="xMidYMid meet">
<metadata>
Created by potrace 1.11, written by Peter Selinger 2001-2013
</metadata>
<g transform="translate(0.000000,300.000000) scale(0.100000,-0.100000)"
fill="#000000" stroke="none">
<path d="M995 2487 c-14 -51 -64 -218 -110 -372 -129 -433 -196 -656 -210
-705 -38 -137 -168 -566 -172 -570 -3 -3 -19 11 -35 30 -48 54 -200 220 -226
247 l-24 24 -56 -52 c-32 -29 -59 -54 -61 -56 -4 -2 91 -110 196 -223 23 -25
50 -54 60 -66 10 -12 56 -63 103 -114 47 -51 92 -101 101 -112 16 -18 18 -15
37 49 12 37 24 80 27 96 7 27 7 27 96 27 68 0 89 -3 89 -13 0 -20 76 -125 112
-155 132 -112 315 -133 473 -54 61 30 145 115 175 176 l22 46 289 0 c268 0
289 -1 290 -17 4 -95 62 -184 149 -228 57 -29 164 -30 221 -2 85 42 145 133
148 225 1 19 7 22 39 22 33 0 40 5 69 48 75 113 98 194 98 347 0 96 -4 133
-22 185 -24 71 -59 138 -97 185 -23 29 -24 29 -142 31 -66 1 -121 2 -124 3 -3
1 -5 56 -5 124 0 148 -10 238 -36 337 -44 163 -102 281 -200 405 -89 113 -52
103 -387 103 l-292 0 -24 -51 c-13 -29 -50 -106 -81 -172 -32 -66 -74 -156
-95 -200 -105 -223 -203 -430 -210 -444 -5 -9 -30 -61 -56 -116 -26 -55 -64
-137 -85 -181 -28 -62 -46 -87 -73 -103 -43 -27 -120 -111 -138 -151 -11 -27
-18 -30 -57 -30 -34 0 -42 3 -37 15 5 13 46 152 136 455 15 52 58 196 95 320
184 618 214 725 207 731 -4 4 -39 17 -78 27 l-71 20 -28 -91z m1172 -221 c53
-66 124 -201 151 -286 42 -130 52 -214 48 -410 -1 -102 -5 -192 -7 -200 -3
-13 20 -15 163 -18 l167 -2 30 -63 c45 -93 57 -194 34 -304 -13 -66 -49 -152
-64 -154 -5 -1 -15 -2 -21 -3 -7 -1 -33 16 -58 37 -61 53 -103 69 -181 69 -55
1 -76 -5 -119 -28 -28 -15 -61 -40 -72 -53 l-20 -26 -299 0 c-164 0 -299 2
-300 5 0 3 -2 21 -3 40 -7 67 -17 102 -45 158 -66 129 -188 214 -330 229 -31
3 -57 7 -59 8 -3 3 37 91 121 265 53 111 97 205 178 378 22 45 65 137 97 205
32 67 67 141 77 165 l19 42 225 0 226 -1 42 -53z m-851 -1221 c52 -31 87 -74
108 -137 53 -158 -84 -323 -252 -305 -223 24 -292 314 -103 434 57 36 74 41
144 37 41 -2 72 -11 103 -29z m-540 -197 c-1 -19 -7 -22 -44 -24 -44 -2 -58 7
-48 31 4 10 20 15 49 15 39 0 44 -3 43 -22z m1697 -42 c40 -9 84 -60 92 -107
18 -104 -101 -193 -193 -145 -81 43 -101 145 -42 215 20 23 84 52 105 46 5 -2
22 -6 38 -9z"/>
</g>
</svg>
